<mxfile host="Electron" agent="Mozilla/5.0 (Windows NT 10.0; Win64; x64) AppleWebKit/537.36 (KHTML, like Gecko) draw.io/26.2.2 Chrome/134.0.6998.178 Electron/35.1.2 Safari/537.36" version="26.2.2">
  <diagram name="Page-1" id="2YBvvXClWsGukQMizWep">
    <mxGraphModel dx="1285" dy="980" grid="1" gridSize="10" guides="1" tooltips="1" connect="1" arrows="1" fold="1" page="1" pageScale="1" pageWidth="850" pageHeight="1100" math="0" shadow="0">
      <root>
        <mxCell id="0" />
        <mxCell id="1" parent="0" />
        <mxCell id="a5nu8evxh3gifW8wJ3oi-3" value="" style="group" vertex="1" connectable="0" parent="1">
          <mxGeometry x="90" y="150" width="130" height="70" as="geometry" />
        </mxCell>
        <mxCell id="a5nu8evxh3gifW8wJ3oi-1" value="" style="rounded=1;whiteSpace=wrap;html=1;" vertex="1" parent="a5nu8evxh3gifW8wJ3oi-3">
          <mxGeometry x="10" width="120" height="60" as="geometry" />
        </mxCell>
        <mxCell id="a5nu8evxh3gifW8wJ3oi-2" value="Game client" style="rounded=1;whiteSpace=wrap;html=1;" vertex="1" parent="a5nu8evxh3gifW8wJ3oi-3">
          <mxGeometry y="10" width="120" height="60" as="geometry" />
        </mxCell>
        <mxCell id="a5nu8evxh3gifW8wJ3oi-5" value="UDP/TCP" style="rounded=1;whiteSpace=wrap;html=1;" vertex="1" parent="1">
          <mxGeometry x="280" y="165" width="120" height="30" as="geometry" />
        </mxCell>
        <mxCell id="a5nu8evxh3gifW8wJ3oi-7" value="" style="group" vertex="1" connectable="0" parent="1">
          <mxGeometry x="460" y="140" width="130" height="70" as="geometry" />
        </mxCell>
        <mxCell id="a5nu8evxh3gifW8wJ3oi-8" value="" style="rounded=1;whiteSpace=wrap;html=1;" vertex="1" parent="a5nu8evxh3gifW8wJ3oi-7">
          <mxGeometry x="10" width="120" height="60" as="geometry" />
        </mxCell>
        <mxCell id="a5nu8evxh3gifW8wJ3oi-9" value="Server controller" style="rounded=1;whiteSpace=wrap;html=1;" vertex="1" parent="a5nu8evxh3gifW8wJ3oi-7">
          <mxGeometry y="10" width="120" height="60" as="geometry" />
        </mxCell>
        <mxCell id="a5nu8evxh3gifW8wJ3oi-13" value="Assets" style="rounded=1;whiteSpace=wrap;html=1;" vertex="1" parent="1">
          <mxGeometry x="20" y="280" width="120" height="60" as="geometry" />
        </mxCell>
        <mxCell id="a5nu8evxh3gifW8wJ3oi-14" style="edgeStyle=orthogonalEdgeStyle;rounded=0;orthogonalLoop=1;jettySize=auto;html=1;entryX=0.5;entryY=0;entryDx=0;entryDy=0;" edge="1" parent="1" source="a5nu8evxh3gifW8wJ3oi-2" target="a5nu8evxh3gifW8wJ3oi-13">
          <mxGeometry relative="1" as="geometry" />
        </mxCell>
        <mxCell id="a5nu8evxh3gifW8wJ3oi-15" value="Local resources" style="rounded=1;whiteSpace=wrap;html=1;" vertex="1" parent="1">
          <mxGeometry x="160" y="280" width="120" height="60" as="geometry" />
        </mxCell>
        <mxCell id="a5nu8evxh3gifW8wJ3oi-16" style="edgeStyle=orthogonalEdgeStyle;rounded=0;orthogonalLoop=1;jettySize=auto;html=1;entryX=0.5;entryY=0;entryDx=0;entryDy=0;" edge="1" parent="1" source="a5nu8evxh3gifW8wJ3oi-2" target="a5nu8evxh3gifW8wJ3oi-15">
          <mxGeometry relative="1" as="geometry" />
        </mxCell>
        <mxCell id="a5nu8evxh3gifW8wJ3oi-17" value="Database" style="rounded=1;whiteSpace=wrap;html=1;" vertex="1" parent="1">
          <mxGeometry x="390" y="270" width="120" height="60" as="geometry" />
        </mxCell>
        <mxCell id="a5nu8evxh3gifW8wJ3oi-18" value="API" style="rounded=1;whiteSpace=wrap;html=1;" vertex="1" parent="1">
          <mxGeometry x="530" y="270" width="120" height="60" as="geometry" />
        </mxCell>
        <mxCell id="a5nu8evxh3gifW8wJ3oi-19" style="edgeStyle=orthogonalEdgeStyle;rounded=0;orthogonalLoop=1;jettySize=auto;html=1;entryX=0.5;entryY=0;entryDx=0;entryDy=0;" edge="1" parent="1" source="a5nu8evxh3gifW8wJ3oi-9" target="a5nu8evxh3gifW8wJ3oi-17">
          <mxGeometry relative="1" as="geometry" />
        </mxCell>
        <mxCell id="a5nu8evxh3gifW8wJ3oi-20" style="edgeStyle=orthogonalEdgeStyle;rounded=0;orthogonalLoop=1;jettySize=auto;html=1;entryX=0.5;entryY=0;entryDx=0;entryDy=0;" edge="1" parent="1" source="a5nu8evxh3gifW8wJ3oi-9" target="a5nu8evxh3gifW8wJ3oi-18">
          <mxGeometry relative="1" as="geometry" />
        </mxCell>
        <mxCell id="a5nu8evxh3gifW8wJ3oi-22" value="" style="endArrow=classic;startArrow=classic;html=1;rounded=0;exitX=1;exitY=0.5;exitDx=0;exitDy=0;entryX=0;entryY=0.5;entryDx=0;entryDy=0;" edge="1" parent="1" source="a5nu8evxh3gifW8wJ3oi-1" target="a5nu8evxh3gifW8wJ3oi-5">
          <mxGeometry width="50" height="50" relative="1" as="geometry">
            <mxPoint x="400" y="350" as="sourcePoint" />
            <mxPoint x="450" y="300" as="targetPoint" />
          </mxGeometry>
        </mxCell>
        <mxCell id="a5nu8evxh3gifW8wJ3oi-23" value="" style="endArrow=classic;startArrow=classic;html=1;rounded=0;exitX=1;exitY=0.5;exitDx=0;exitDy=0;entryX=0;entryY=0.5;entryDx=0;entryDy=0;" edge="1" parent="1" source="a5nu8evxh3gifW8wJ3oi-5" target="a5nu8evxh3gifW8wJ3oi-9">
          <mxGeometry width="50" height="50" relative="1" as="geometry">
            <mxPoint x="400" y="179.5" as="sourcePoint" />
            <mxPoint x="460" y="179.5" as="targetPoint" />
          </mxGeometry>
        </mxCell>
        <mxCell id="a5nu8evxh3gifW8wJ3oi-24" value="" style="group" vertex="1" connectable="0" parent="1">
          <mxGeometry x="870" y="125" width="130" height="70" as="geometry" />
        </mxCell>
        <mxCell id="a5nu8evxh3gifW8wJ3oi-25" value="" style="rounded=1;whiteSpace=wrap;html=1;" vertex="1" parent="a5nu8evxh3gifW8wJ3oi-24">
          <mxGeometry x="10" width="120" height="60" as="geometry" />
        </mxCell>
        <mxCell id="a5nu8evxh3gifW8wJ3oi-26" value="Game client" style="rounded=1;whiteSpace=wrap;html=1;" vertex="1" parent="a5nu8evxh3gifW8wJ3oi-24">
          <mxGeometry y="10" width="120" height="60" as="geometry" />
        </mxCell>
        <mxCell id="a5nu8evxh3gifW8wJ3oi-27" value="Assets" style="rounded=1;whiteSpace=wrap;html=1;" vertex="1" parent="1">
          <mxGeometry x="780" y="250" width="120" height="60" as="geometry" />
        </mxCell>
        <mxCell id="a5nu8evxh3gifW8wJ3oi-28" style="edgeStyle=orthogonalEdgeStyle;rounded=0;orthogonalLoop=1;jettySize=auto;html=1;entryX=0.5;entryY=0;entryDx=0;entryDy=0;" edge="1" parent="1" source="a5nu8evxh3gifW8wJ3oi-26" target="a5nu8evxh3gifW8wJ3oi-27">
          <mxGeometry relative="1" as="geometry" />
        </mxCell>
        <mxCell id="a5nu8evxh3gifW8wJ3oi-29" value="Local resources" style="rounded=1;whiteSpace=wrap;html=1;" vertex="1" parent="1">
          <mxGeometry x="960" y="250" width="120" height="60" as="geometry" />
        </mxCell>
        <mxCell id="a5nu8evxh3gifW8wJ3oi-30" style="edgeStyle=orthogonalEdgeStyle;rounded=0;orthogonalLoop=1;jettySize=auto;html=1;entryX=0.5;entryY=0;entryDx=0;entryDy=0;" edge="1" parent="1" source="a5nu8evxh3gifW8wJ3oi-26" target="a5nu8evxh3gifW8wJ3oi-29">
          <mxGeometry relative="1" as="geometry" />
        </mxCell>
        <mxCell id="a5nu8evxh3gifW8wJ3oi-34" value="UDP/TCP" style="rounded=1;whiteSpace=wrap;html=1;" vertex="1" parent="1">
          <mxGeometry x="650" y="155" width="120" height="30" as="geometry" />
        </mxCell>
        <mxCell id="a5nu8evxh3gifW8wJ3oi-35" value="" style="endArrow=classic;startArrow=classic;html=1;rounded=0;exitX=1;exitY=0.5;exitDx=0;exitDy=0;entryX=0;entryY=0.5;entryDx=0;entryDy=0;" edge="1" parent="1" target="a5nu8evxh3gifW8wJ3oi-34" source="a5nu8evxh3gifW8wJ3oi-8">
          <mxGeometry width="50" height="50" relative="1" as="geometry">
            <mxPoint x="590" y="165" as="sourcePoint" />
            <mxPoint x="820" y="285" as="targetPoint" />
          </mxGeometry>
        </mxCell>
        <mxCell id="a5nu8evxh3gifW8wJ3oi-37" value="" style="endArrow=classic;startArrow=classic;html=1;rounded=0;exitX=1;exitY=0.5;exitDx=0;exitDy=0;entryX=0;entryY=0.5;entryDx=0;entryDy=0;" edge="1" parent="1" source="a5nu8evxh3gifW8wJ3oi-34" target="a5nu8evxh3gifW8wJ3oi-26">
          <mxGeometry width="50" height="50" relative="1" as="geometry">
            <mxPoint x="770" y="169.5" as="sourcePoint" />
            <mxPoint x="830" y="169.5" as="targetPoint" />
          </mxGeometry>
        </mxCell>
      </root>
    </mxGraphModel>
  </diagram>
</mxfile>
